<svg id="artwork" xmlns="http://www.w3.org/2000/svg" xmlns:xlink="http://www.w3.org/1999/xlink" viewBox="0 0 135 40"><defs><style>.cls-1,.cls-10,.cls-11,.cls-3{fill:#fff;}.cls-1{fill-opacity:0;}.cls-2{fill:#a6a6a6;}.cls-4{fill:url(#未命名的渐变);}.cls-5{fill:url(#未命名的渐变_2);}.cls-6{fill:url(#未命名的渐变_3);}.cls-7{fill:url(#未命名的渐变_4);}.cls-8{opacity:0.2;}.cls-10,.cls-8,.cls-9{isolation:isolate;}.cls-9{opacity:0.12;}.cls-10{opacity:0.25;}.cls-11{stroke:#fff;stroke-miterlimit:10;stroke-width:0.2px;}</style><linearGradient id="未命名的渐变" x1="21.91" y1="886.87" x2="5.13" y2="903.65" gradientTransform="translate(0 -878)" gradientUnits="userSpaceOnUse"><stop offset="0" stop-color="#00a0ff"/><stop offset="0.01" stop-color="#00a1ff"/><stop offset="0.26" stop-color="#00beff"/><stop offset="0.51" stop-color="#00d2ff"/><stop offset="0.76" stop-color="#00dfff"/><stop offset="1" stop-color="#00e3ff"/></linearGradient><linearGradient id="未命名的渐变_2" x1="33.94" y1="898.15" x2="9.75" y2="898.15" gradientTransform="translate(0 -878)" gradientUnits="userSpaceOnUse"><stop offset="0" stop-color="#ffe000"/><stop offset="0.41" stop-color="#ffbd00"/><stop offset="0.78" stop-color="orange"/><stop offset="1" stop-color="#ff9c00"/></linearGradient><linearGradient id="未命名的渐变_3" x1="24.93" y1="900.45" x2="2.17" y2="923.2" gradientTransform="translate(0 -878)" gradientUnits="userSpaceOnUse"><stop offset="0" stop-color="#ff3a44"/><stop offset="1" stop-color="#c31162"/></linearGradient><linearGradient id="未命名的渐变_4" x1="7.41" y1="878.33" x2="17.57" y2="888.49" gradientTransform="translate(0 -878)" gradientUnits="userSpaceOnUse"><stop offset="0" stop-color="#32a071"/><stop offset="0.07" stop-color="#2da771"/><stop offset="0.48" stop-color="#15cf74"/><stop offset="0.8" stop-color="#06e775"/><stop offset="1" stop-color="#00f076"/></linearGradient></defs><rect class="cls-1" width="135" height="40"/><rect width="135" height="40" rx="5"/><path class="cls-2" d="M130.11,1a4.21,4.21,0,0,1,4.2,4.2v30a4.21,4.21,0,0,1-4.2,4.21H5.11a4.21,4.21,0,0,1-4.2-4.21h0v-30A4.21,4.21,0,0,1,5.11,1h125m0-.8H5.11a5,5,0,0,0-5,5v30a5,5,0,0,0,5,5h125a5,5,0,0,0,5-5v-30A5,5,0,0,0,130.11.15Z" transform="translate(-0.11 -0.15)"/><path class="cls-3" d="M68.25,21.9a4.26,4.26,0,1,0,4.27,4.25,4.2,4.2,0,0,0-4.13-4.25Zm0,6.84A2.58,2.58,0,1,1,70.64,26a1,1,0,0,1,0,.17,2.45,2.45,0,0,1-2.34,2.58Zm-9.32-6.83a4.26,4.26,0,1,0,4.27,4.24,4.2,4.2,0,0,0-4.13-4.25Zm0,6.83A2.58,2.58,0,1,1,61.32,26a1,1,0,0,1,0,.17A2.45,2.45,0,0,1,59,28.73ZM47.85,23.22V25h4.32a3.82,3.82,0,0,1-1,2.27,4.45,4.45,0,0,1-3.34,1.32,4.8,4.8,0,1,1,0-9.6,4.64,4.64,0,0,1,3.28,1.28L52.38,19a6.33,6.33,0,0,0-4.53-1.82,6.61,6.61,0,0,0-.51,13.21,4.34,4.34,0,0,0,.51,0,6,6,0,0,0,4.61-1.85A6,6,0,0,0,54,24.34a6.86,6.86,0,0,0-.09-1.12Zm45.31,1.4a3.92,3.92,0,0,0-7.65,1.28,2.35,2.35,0,0,0,0,.26,4.23,4.23,0,0,0,7.76,2.37l-1.45-1a2.44,2.44,0,0,1-2.09,1.17,2.15,2.15,0,0,1-2.06-1.3l5.69-2.34ZM87.36,26a2.34,2.34,0,0,1,2.18-2.49h0a1.64,1.64,0,0,1,1.57.91Zm-4.62,4.11h1.87V17.65H82.74Zm-3.06-7.29h-.07a2.92,2.92,0,0,0-2.24-1,4.25,4.25,0,0,0,0,8.5,2.84,2.84,0,0,0,2.24-1h.07V30c0,1.64-.87,2.5-2.27,2.5A2.34,2.34,0,0,1,75.26,31l-1.62.66a4,4,0,0,0,3.77,2.52c2.19,0,4-1.29,4-4.43V22.15H79.68Zm-2.15,5.88a2.58,2.58,0,0,1,0-5.15,2.38,2.38,0,0,1,2.28,2.49v.07a2.39,2.39,0,0,1-2.17,2.58Zm24.39-11.09H97.44v12.5h1.87V25.41h2.61a3.89,3.89,0,1,0,.56-7.76Zm0,6H99.31V19.39H102a2.15,2.15,0,0,1,0,4.29h0Zm11.54-1.79a3.51,3.51,0,0,0-3.33,1.91l1.65.69a1.79,1.79,0,0,1,1.71-.91,1.81,1.81,0,0,1,2,1.58v.15a4.26,4.26,0,0,0-1.95-.48c-1.78,0-3.6,1-3.6,2.82a2.89,2.89,0,0,0,3,2.76h.09a2.62,2.62,0,0,0,2.38-1.22h.06v1h1.8V25.34c0-2.19-1.66-3.46-3.79-3.46Zm-.23,6.85c-.61,0-1.46-.31-1.46-1.06,0-1,1.06-1.34,2-1.34a3.48,3.48,0,0,1,1.7.42,2.27,2.27,0,0,1-2.2,2Zm10.62-6.56-2.14,5.42h-.06l-2.22-5.42h-2l3.33,7.59L118.86,34h2l5.12-11.8Zm-16.8,8h1.86V17.65h-1.86Z" transform="translate(-0.11 -0.15)"/><path class="cls-4" d="M10.55,7.7a2,2,0,0,0-.47,1.4V31.22a1.94,1.94,0,0,0,.47,1.4l.07.08L23,20.3V20L10.62,7.62Z" transform="translate(-0.11 -0.15)"/><path class="cls-5" d="M27.11,24.43,23,20.3V20l4.1-4.14.09.06,4.91,2.78c1.4.8,1.4,2.09,0,2.89l-4.89,2.78Z" transform="translate(-0.11 -0.15)"/><path class="cls-6" d="M27.23,24.38,23,20.15,10.55,32.61a1.62,1.62,0,0,0,2.07.07l14.61-8.31" transform="translate(-0.11 -0.15)"/><path class="cls-7" d="M27.23,15.94,12.62,7.63a1.63,1.63,0,0,0-2.07.06L23,20.15Z" transform="translate(-0.11 -0.15)"/><path class="cls-8" d="M27.11,24.29,12.62,32.54a1.68,1.68,0,0,1-2,0h0l-.07.07h0l.07.08h0a1.68,1.68,0,0,0,2,0l14.61-8.31Z" transform="translate(-0.11 -0.15)"/><path class="cls-9" d="M10.55,32.47a2,2,0,0,1-.44-1.41v.16a1.94,1.94,0,0,0,.47,1.4l.07-.07Z" transform="translate(-0.11 -0.15)"/><path class="cls-9" d="M32.11,21.45l-5,2.83.09.09,4.91-2.77a1.76,1.76,0,0,0,1.06-1.45h0A1.86,1.86,0,0,1,32.11,21.45Z" transform="translate(-0.11 -0.15)"/><path class="cls-10" d="M12.62,7.78,32.11,18.86a1.86,1.86,0,0,1,1.06,1.29h0a1.76,1.76,0,0,0-1.06-1.44L12.62,7.63c-1.39-.79-2.54-.14-2.54,1.46v.15C10.11,7.64,11.23,7,12.62,7.78Z" transform="translate(-0.11 -0.15)"/><path class="cls-11" d="M44.8,7.71V9l.09-.11a18,18,0,0,1,2.59,1.51l-.38.49a18.25,18.25,0,0,0-2.3-1.46v3.84h-.58V7.71H41.44V7.15h6.44V7.7Z" transform="translate(-0.11 -0.15)"/><path class="cls-11" d="M54.89,9.23a9.65,9.65,0,0,1-1.1,2.5c.2.63.47,1,.79,1s.25-.3.3-1.16a1.19,1.19,0,0,0,.42.28c-.09,1.09-.26,1.42-.77,1.42s-.83-.38-1.1-1a6.32,6.32,0,0,1-1,1.07,2,2,0,0,0-.38-.38,4.8,4.8,0,0,0,1.23-1.27,13.73,13.73,0,0,1-.42-3H48.72V8.26h1.76V7.64H49.11V7.2H50.5V6.62H51V7.2H52.3v.44H51v.62h1.78V6.63h.53V8.26h1.9v.43H53.32A16.76,16.76,0,0,0,53.61,11a8.86,8.86,0,0,0,.79-2Zm-2.32,2.92-1.32.14v1h-.51v-.93l-1.89.2-.06-.5,2-.16v-.75h-1a1.06,1.06,0,0,0-.58.11,2.67,2.67,0,0,0-.17-.5c.11,0,.22-.17.34-.37a5.18,5.18,0,0,0,.27-.53h-.82V9.42h1a7.46,7.46,0,0,0,.27-.71l.53.15c-.07.18-.15.37-.24.56h2.15v.44H50.2a7.28,7.28,0,0,1-.47.82h1v-.53h.51v.59h1.15v.41H51.25v.67l1.32-.12Zm2-4.18a5.28,5.28,0,0,0-.88-1l.39-.25a4.84,4.84,0,0,1,.89.92Z" transform="translate(-0.11 -0.15)"/><path class="cls-11" d="M57.24,8.09V9.55a8.65,8.65,0,0,1-.69,3.8,2,2,0,0,0-.46-.3,7.76,7.76,0,0,0,.61-3.5v-2h2.89a7.2,7.2,0,0,0-.39-.85l.53-.13a8.23,8.23,0,0,1,.47,1h2.44V8.1Zm5.49,4.35V13h-5.4v-.52h2.88a13.5,13.5,0,0,0,1.54-3.85l.57.2a16.28,16.28,0,0,1-1.55,3.64Zm-4.22-.79a20.13,20.13,0,0,0-.79-2.5L58.19,9A19.9,19.9,0,0,1,59,11.43Zm1.39-.39a20.54,20.54,0,0,0-.6-2.49l.49-.13a18.07,18.07,0,0,1,.63,2.51Z" transform="translate(-0.11 -0.15)"/><path class="cls-11" d="M69.82,12.56c0,.35-.1.51-.33.6a4.57,4.57,0,0,1-1.38.1,2.37,2.37,0,0,0-.18-.53h1.14c.14,0,.2,0,.2-.19V11.07h-2v2.15h-.54V11.07H65a4.2,4.2,0,0,1-.91,2.27,1.64,1.64,0,0,0-.42-.37,4.63,4.63,0,0,0,.88-3.2V7.15h5.31Zm-3-2V9.35H65v1.21ZM65.08,7.68V8.85h1.74V7.66Zm4.25,0h-2V8.85h2Zm0,2.88V9.35h-2v1.2Z" transform="translate(-0.11 -0.15)"/><path class="cls-11" d="M71.36,13.15a1.29,1.29,0,0,0,.92-1.06h-.17a.5.5,0,0,1-.54-.44v-.09a.51.51,0,0,1,.5-.52h.05c.4,0,.62.33.62.84a1.72,1.72,0,0,1-1.26,1.65Z" transform="translate(-0.11 -0.15)"/><path class="cls-11" d="M78.11,11.46a2.34,2.34,0,0,0,.19.46,11.73,11.73,0,0,0-1.49,1.23,2.11,2.11,0,0,0-.28-.45.75.75,0,0,0,.34-.63V9.44H75.78V8.91H77.4V12Zm-.8-3.21a9.91,9.91,0,0,0-1-1.1l.35-.31a9.18,9.18,0,0,1,1.1,1.06ZM82.39,9V9.4H78V9h1.9V8.47H78.42V8.08h1.51V7.62H78.25V7.2h1.68V6.64h.53V7.2h1.75v.42H80.46v.46H82v.39H80.46V9Zm-.57,3.7c0,.28-.06.42-.25.5a3.06,3.06,0,0,1-1,.08,2.9,2.9,0,0,0-.16-.47,5.47,5.47,0,0,0,.81,0c.11,0,.13,0,.13-.12v-.52H79.11v1.13H78.6V9.82h3.3Zm-2.71-2.44v.56h2.27v-.56Zm2.27,1.54v-.63H79.11v.59Z" transform="translate(-0.11 -0.15)"/><path class="cls-11" d="M87.11,12.05v.49l-3.75.53-.08-.54L85,12.32V11.05H83.6v-.5H85V9.68h.53v.87h1.37v.5H85.52v1.22ZM86.11,8A9.23,9.23,0,0,1,87.26,9.6l-.42.25-.25-.45c-1.15.08-2.32.14-3.15.19V9.07h.67a12,12,0,0,0,.54-1.45H83.39V7.15h3.72v.48H85.18c-.18.46-.39,1-.6,1.43L86.26,9c-.18-.25-.37-.51-.58-.75ZM88,11.52h-.52v-4H88Zm1.72-4.69v5.73c0,.37-.09.54-.33.63a4.11,4.11,0,0,1-1.26.1,3,3,0,0,0-.18-.56H89c.14,0,.17,0,.17-.18V6.84Z" transform="translate(-0.11 -0.15)"/></svg>